<?xml version="1.0" standalone="no"?>
<!DOCTYPE svg PUBLIC "-//W3C//DTD SVG 20010904//EN"
 "http://www.w3.org/TR/2001/REC-SVG-20010904/DTD/svg10.dtd">
<svg version="1.0" xmlns="http://www.w3.org/2000/svg"
 width="700.000000pt" height="700.000000pt" viewBox="0 0 700.000000 700.000000"
 preserveAspectRatio="xMidYMid meet">
<metadata>
Created by potrace 1.14, written by Peter Selinger 2001-2017
</metadata>
<g transform="translate(0.000000,700.000000) scale(0.100000,-0.100000)"
fill="#000000" stroke="none">
<path d="M3490 6980 c0 -7 -33 -115 -74 -239 -41 -124 -122 -374 -181 -556
-58 -181 -112 -345 -118 -362 l-11 -33 -632 -2 -631 -3 324 -235 c179 -129
332 -241 341 -248 10 -7 67 -48 127 -92 61 -43 115 -83 120 -88 6 -5 33 -24
61 -43 l50 -34 -13 -35 c-13 -39 -88 -271 -243 -750 -56 -173 -110 -339 -120
-367 -10 -29 -16 -53 -14 -53 3 0 458 329 739 534 11 8 80 58 152 111 l133 97
87 -63 c49 -35 106 -77 129 -94 22 -16 51 -38 65 -48 13 -9 179 -130 369 -268
190 -138 353 -255 362 -260 15 -8 13 3 -11 73 -16 46 -68 205 -116 353 -48
149 -102 315 -120 370 -63 190 -125 386 -125 393 0 4 39 36 88 71 140 103 195
143 232 171 19 14 46 33 60 42 22 15 331 239 435 316 22 16 78 57 124 91 l85
61 -637 0 -636 0 -6 23 c-9 29 -223 691 -240 742 -8 22 -42 126 -75 230 -57
175 -80 231 -80 195z"/>
<path d="M879 4199 c-1 -2 -2 -238 -3 -524 -1 -457 0 -521 14 -531 14 -10 94
-53 305 -164 55 -29 114 -60 130 -70 17 -10 84 -46 150 -80 66 -34 134 -70
150 -80 17 -10 80 -43 140 -75 140 -74 251 -132 395 -210 63 -34 156 -84 205
-110 100 -53 192 -102 305 -162 126 -68 530 -283 620 -330 47 -25 113 -61 147
-80 l63 -35 97 53 c54 28 121 64 148 79 28 15 95 51 150 80 55 29 123 65 150
80 28 15 95 51 150 80 55 29 120 64 144 77 24 13 91 49 150 80 58 30 169 89
246 131 156 83 242 130 358 191 42 22 110 58 150 80 39 21 113 60 162 86 179
95 241 128 290 155 71 38 182 98 310 165 61 32 112 60 115 62 3 3 5 240 5 528
l0 524 -115 -61 c-63 -33 -153 -81 -200 -106 -47 -24 -89 -48 -95 -52 -5 -4
-77 -42 -160 -85 -82 -43 -154 -81 -160 -85 -5 -4 -64 -35 -130 -70 -66 -35
-210 -111 -320 -170 -110 -59 -245 -131 -300 -160 -55 -29 -122 -65 -150 -80
-27 -15 -133 -72 -235 -126 -102 -54 -207 -111 -235 -126 -27 -15 -57 -30 -65
-34 -14 -7 -169 -89 -377 -200 l-82 -44 -88 46 c-48 26 -110 59 -138 74 -27
15 -99 53 -160 85 -60 32 -132 70 -160 85 -27 15 -85 46 -127 69 -43 22 -112
59 -153 81 -42 22 -110 59 -153 81 -42 23 -104 56 -137 74 -33 18 -105 56
-160 85 -55 29 -122 65 -150 80 -27 15 -99 53 -160 85 -60 32 -123 65 -140 75
-30 17 -120 65 -285 153 -81 42 -175 92 -305 162 -33 17 -109 58 -170 90 -60
32 -116 62 -122 68 -7 5 -14 8 -14 6z"/>
<path d="M875 1925 l0 -525 145 -77 c80 -42 170 -90 200 -106 30 -16 123 -66
205 -110 83 -44 182 -96 220 -117 39 -21 111 -59 160 -85 50 -27 139 -74 198
-107 59 -32 109 -58 111 -58 2 0 39 -19 82 -43 44 -24 129 -70 189 -102 61
-32 133 -70 160 -85 28 -15 104 -55 170 -90 66 -34 125 -66 130 -70 6 -4 73
-40 150 -80 77 -40 145 -76 150 -80 6 -4 64 -35 130 -70 66 -34 144 -76 172
-92 l53 -29 87 47 c49 26 106 57 128 69 22 12 90 48 150 80 61 32 133 70 160
85 54 30 161 87 295 158 96 50 213 113 310 164 36 19 139 74 230 123 185 98
291 155 365 195 28 15 104 56 170 90 66 35 134 71 150 80 17 10 75 41 130 70
55 29 123 65 150 80 28 15 100 53 160 85 61 32 117 64 125 71 13 11 15 80 14
526 -1 282 -2 517 -3 522 0 5 -7 4 -13 -1 -7 -6 -62 -36 -123 -68 -60 -32
-166 -88 -235 -125 -69 -37 -174 -93 -235 -125 -60 -32 -123 -66 -140 -75 -16
-10 -84 -46 -150 -80 -66 -35 -124 -66 -130 -70 -5 -4 -77 -42 -160 -85 -82
-43 -154 -81 -160 -85 -5 -4 -68 -38 -140 -75 -71 -37 -134 -71 -140 -75 -5
-4 -68 -38 -140 -75 -128 -67 -222 -117 -340 -180 -85 -46 -196 -105 -300
-160 -49 -26 -118 -63 -152 -81 l-62 -33 -78 40 c-43 23 -105 56 -138 74 -71
38 -328 175 -435 232 -105 56 -223 119 -305 163 -38 21 -99 53 -135 72 -74 40
-353 188 -480 255 -47 25 -112 60 -145 78 -33 18 -96 52 -140 75 -44 24 -111
59 -150 80 -38 20 -110 59 -160 85 -49 26 -112 60 -140 75 -27 15 -104 56
-170 90 -66 35 -124 67 -129 71 -6 5 -13 9 -16 9 -3 0 -5 -236 -5 -525z"/>
</g>
</svg>
