<svg width="64" height="64" viewBox="0 0 64 64" fill="none" xmlns="http://www.w3.org/2000/svg">
  <g clip-path="url(#clip0_623_95)">
    <rect width="64" height="64" fill="#10296D"/>
    <mask id="path-1-inside-1_623_95" fill="white">
      <path fill-rule="evenodd" clip-rule="evenodd" d="M-13.4245 -1.01709L-22.4072 17.4002L9.20198 32.817L-22.4077 48.2341L-13.425 66.6513L32.5738 44.2162L78.1616 66.4509L87.1443 48.0336L55.9456 32.817L87.1438 17.6006L78.1611 -0.816625L32.5738 21.4178L-13.4245 -1.01709Z"/>
    </mask>
    <path fill-rule="evenodd" clip-rule="evenodd" d="M-13.4245 -1.01709L-22.4072 17.4002L9.20198 32.817L-22.4077 48.2341L-13.425 66.6513L32.5738 44.2162L78.1616 66.4509L87.1443 48.0336L55.9456 32.817L87.1438 17.6006L78.1611 -0.816625L32.5738 21.4178L-13.4245 -1.01709Z" fill="#AA1C2D"/>
    <path d="M-22.4072 17.4002L-29.9105 13.7405L-33.5702 21.2439L-26.0668 24.9035L-22.4072 17.4002ZM-13.4245 -1.01709L-9.76491 -8.52042L-17.2682 -12.18L-20.9279 -4.67671L-13.4245 -1.01709ZM9.20198 32.817L12.8616 40.3203L28.2457 32.817L12.8616 25.3137L9.20198 32.817ZM-22.4077 48.2341L-26.0673 40.7308L-33.5707 44.3904L-29.911 51.8937L-22.4077 48.2341ZM-13.425 66.6513L-20.9283 70.311L-17.2687 77.8143L-9.76541 74.1547L-13.425 66.6513ZM32.5738 44.2162L36.2334 36.7129L32.5738 34.928L28.9142 36.7129L32.5738 44.2162ZM78.1616 66.4509L74.502 73.9542L82.0053 77.6138L85.6649 70.1105L78.1616 66.4509ZM87.1443 48.0336L94.6476 51.6932L98.3073 44.1899L90.8039 40.5303L87.1443 48.0336ZM55.9456 32.817L52.286 25.3137L36.9019 32.817L52.286 40.3203L55.9456 32.817ZM87.1438 17.6006L90.8034 25.104L98.3068 21.4443L94.6472 13.941L87.1438 17.6006ZM78.1611 -0.816625L85.6645 -4.47624L82.0048 -11.9796L74.5015 -8.31995L78.1611 -0.816625ZM32.5738 21.4178L28.9142 28.9211L32.5738 30.706L36.2334 28.9211L32.5738 21.4178ZM-14.9039 21.0598L-5.9212 2.64253L-20.9279 -4.67671L-29.9105 13.7405L-14.9039 21.0598ZM12.8616 25.3137L-18.7476 9.89684L-26.0668 24.9035L5.54236 40.3203L12.8616 25.3137ZM-18.7481 55.7374L12.8616 40.3203L5.54236 25.3137L-26.0673 40.7308L-18.7481 55.7374ZM-5.9217 62.9917L-14.9044 44.5745L-29.911 51.8937L-20.9283 70.311L-5.9217 62.9917ZM28.9142 36.7129L-17.0846 59.148L-9.76541 74.1547L36.2334 51.7195L28.9142 36.7129ZM81.8212 58.9475L36.2334 36.7129L28.9142 51.7195L74.502 73.9542L81.8212 58.9475ZM79.641 44.374L70.6583 62.7913L85.6649 70.1105L94.6476 51.6932L79.641 44.374ZM52.286 40.3203L83.4847 55.5369L90.8039 40.5303L59.6053 25.3137L52.286 40.3203ZM83.4842 10.0973L52.286 25.3137L59.6053 40.3203L90.8034 25.104L83.4842 10.0973ZM70.6578 2.84299L79.6405 21.2602L94.6472 13.941L85.6645 -4.47624L70.6578 2.84299ZM36.2334 28.9211L81.8207 6.6867L74.5015 -8.31995L28.9142 13.9145L36.2334 28.9211ZM-17.0841 6.48624L28.9142 28.9211L36.2334 13.9145L-9.76491 -8.52042L-17.0841 6.48624Z" fill="white" mask="url(#path-1-inside-1_623_95)"/>
    <mask id="path-3-inside-2_623_95" fill="white">
      <path fill-rule="evenodd" clip-rule="evenodd" d="M42.9237 -10H22.4326V22.2549H-25V42.7459H22.4326V75H42.9237V42.7459H88.8393V22.2549H42.9237V-10Z"/>
    </mask>
    <path fill-rule="evenodd" clip-rule="evenodd" d="M42.9237 -10H22.4326V22.2549H-25V42.7459H22.4326V75H42.9237V42.7459H88.8393V22.2549H42.9237V-10Z" fill="#AA1C2D"/>
    <path d="M22.4326 -10V-13.7946H18.638V-10H22.4326ZM42.9237 -10H46.7183V-13.7946H42.9237V-10ZM22.4326 22.2549V26.0495H26.2272V22.2549H22.4326ZM-25 22.2549V18.4602H-28.7946V22.2549H-25ZM-25 42.7459H-28.7946V46.5406H-25V42.7459ZM22.4326 42.7459H26.2272V38.9513H22.4326V42.7459ZM22.4326 75H18.638V78.7946H22.4326V75ZM42.9237 75V78.7946H46.7183V75H42.9237ZM42.9237 42.7459V38.9513H39.129V42.7459H42.9237ZM88.8393 42.7459V46.5406H92.6339V42.7459H88.8393ZM88.8393 22.2549H92.6339V18.4602H88.8393V22.2549ZM42.9237 22.2549H39.129V26.0495H42.9237V22.2549ZM22.4326 -6.20536H42.9237V-13.7946H22.4326V-6.20536ZM26.2272 22.2549V-10H18.638V22.2549H26.2272ZM-25 26.0495H22.4326V18.4602H-25V26.0495ZM-21.2054 42.7459V22.2549H-28.7946V42.7459H-21.2054ZM22.4326 38.9513H-25V46.5406H22.4326V38.9513ZM26.2272 75V42.7459H18.638V75H26.2272ZM42.9237 71.2054H22.4326V78.7946H42.9237V71.2054ZM39.129 42.7459V75H46.7183V42.7459H39.129ZM88.8393 38.9513H42.9237V46.5406H88.8393V38.9513ZM85.0447 22.2549V42.7459H92.6339V22.2549H85.0447ZM42.9237 26.0495H88.8393V18.4602H42.9237V26.0495ZM39.129 -10V22.2549H46.7183V-10H39.129Z" fill="white" mask="url(#path-3-inside-2_623_95)"/>
  </g>
  <defs>
    <clipPath id="clip0_623_95">
      <rect width="64" height="64" fill="white"/>
    </clipPath>
  </defs>
</svg>
