<svg width="62" height="62" viewBox="0 0 62 62" fill="none" xmlns="http://www.w3.org/2000/svg">
  <g clip-path="url(#clip0_633_26)">
    <rect width="62" height="62" fill="#2A2B2F"/>
    <path fill-rule="evenodd" clip-rule="evenodd" d="M23 -2H26V9H23V-2ZM12 20H-5V23H12V20ZM12 26H-5V29H12V26ZM12 32H-5V35H12V32ZM23 49.7973V68H26V52.8784L23 49.7973ZM29 55.9595V68H32V55.9595L30.5 57.5L29 55.9595ZM35 52.8784V68H38V49.7973L35 52.8784ZM49 35H65V32H49V35ZM49 29H65V26H49V29ZM49 23H65V20H49V23ZM38 9V-2H35V9H38ZM32 9V-2H29V9H32Z" fill="#F4B826"/>
    <path fill-rule="evenodd" clip-rule="evenodd" d="M35.1818 13L20.5 21.5L26 33.5L19.9688 40.9503L16 36.8743V18.0767L20.7382 13H35.1818ZM41.9302 9.09302L42 9H19L12 16.5V38.5L17.4343 44.0812L9 54.5L42.377 39.5682L30.5 51.7662L27.2631 48.4418L23.1206 49.9212L27.7085 54.6331L30.5 57.5L33.2915 54.6331L49 38.5V16.5L44.8609 12.0652L42.7198 15.6336L45 18.0767V35.5L33.5 24L49 5L41.9302 9.09302Z" fill="#F4B826"/>
  </g>
  <defs>
    <clipPath id="clip0_633_26">
      <rect width="62" height="62" fill="white"/>
    </clipPath>
  </defs>
</svg>
