<svg width="64" height="64" viewBox="0 0 64 64" fill="none" xmlns="http://www.w3.org/2000/svg">
  <g clip-path="url(#clip0_623_3)">
    <rect width="64" height="64" fill="white"/>
    <rect x="-0.000488281" width="64" height="8" fill="white"/>
    <rect x="-0.000488281" y="8" width="64" height="8" fill="#B4123B"/>
    <rect x="-0.000488281" y="16" width="64" height="8" fill="white"/>
    <rect x="-0.000488281" y="24" width="64" height="8" fill="#B4123B"/>
    <rect x="-0.000488281" y="32" width="64" height="8" fill="white"/>
    <rect x="-0.000488281" y="40" width="64" height="8" fill="#B4123B"/>
    <rect x="-0.000488281" y="48" width="64" height="8" fill="white"/>
    <rect x="-0.000488281" y="56" width="64" height="8" fill="#B4123B"/>
    <rect x="-0.000488281" width="32" height="32" fill="#002559"/>
    <path d="M25.9993 2L26.7477 4.30328H29.1695L27.2103 5.72678L27.9586 8.03006L25.9993 6.60655L24.0401 8.03006L24.7884 5.72678L22.8292 4.30328H25.251L25.9993 2Z" fill="white"/>
    <path d="M25.9993 12.6665L26.7477 14.9698H29.1695L27.2103 16.3933L27.9586 18.6966L25.9993 17.2731L24.0401 18.6966L24.7884 16.3933L22.8292 14.9698H25.251L25.9993 12.6665Z" fill="white"/>
    <path d="M25.9993 23.3335L26.7477 25.6368H29.1695L27.2103 27.0603L27.9586 29.3636L25.9993 27.94L24.0401 29.3636L24.7884 27.0603L22.8292 25.6368H25.251L25.9993 23.3335Z" fill="white"/>
    <path d="M9.99935 2L10.7477 4.30328H13.1695L11.2103 5.72678L11.9586 8.03006L9.99935 6.60655L8.04006 8.03006L8.78844 5.72678L6.82916 4.30328H9.25097L9.99935 2Z" fill="white"/>
    <path d="M9.99935 12.6665L10.7477 14.9698H13.1695L11.2103 16.3933L11.9586 18.6966L9.99935 17.2731L8.04006 18.6966L8.78844 16.3933L6.82916 14.9698H9.25097L9.99935 12.6665Z" fill="white"/>
    <path d="M9.99935 23.3335L10.7477 25.6368H13.1695L11.2103 27.0603L11.9586 29.3636L9.99935 27.94L8.04006 29.3636L8.78844 27.0603L6.82916 25.6368H9.25097L9.99935 23.3335Z" fill="white"/>
    <path d="M17.9993 7.3335L18.7477 9.63677H21.1695L19.2103 11.0603L19.9586 13.3636L17.9993 11.94L16.0401 13.3636L16.7884 11.0603L14.8292 9.63677H17.251L17.9993 7.3335Z" fill="white"/>
    <path d="M17.9993 18L18.7477 20.3033H21.1695L19.2103 21.7268L19.9586 24.0301L17.9993 22.6066L16.0401 24.0301L16.7884 21.7268L14.8292 20.3033H17.251L17.9993 18Z" fill="white"/>
    <path d="M2.00326 18L2.75164 20.3033H5.17344L3.21416 21.7268L3.96254 24.0301L2.00326 22.6066L0.0439709 24.0301L0.792351 21.7268L-1.16693 20.3033H1.25488L2.00326 18Z" fill="white"/>
    <path d="M2.00326 7.3335L2.75164 9.63677H5.17344L3.21416 11.0603L3.96254 13.3636L2.00326 11.94L0.0439709 13.3636L0.792351 11.0603L-1.16693 9.63677H1.25488L2.00326 7.3335Z" fill="white"/>
  </g>
  <defs>
    <clipPath id="clip0_623_3">
      <rect width="64" height="64" fill="white"/>
    </clipPath>
  </defs>
</svg>
