<svg width="64" height="64" viewBox="0 0 64 64" fill="none" xmlns="http://www.w3.org/2000/svg">
  <rect width="64" height="64" fill="#0C3383"/>
  <path d="M53.3988 28.1187L54.3327 30.9931L57.3552 30.9931L54.91 32.7697L55.844 35.6442L53.3988 33.8676L50.9536 35.6442L51.8876 32.7697L49.4424 30.9931L52.4648 30.9931L53.3988 28.1187Z" fill="#D1BB15"/>
  <path d="M50.5833 38.6621L51.5173 41.5366L54.5397 41.5366L52.0945 43.3131L53.0285 46.1876L50.5833 44.4111L48.1382 46.1876L49.0721 43.3131L46.6269 41.5366L49.6494 41.5366L50.5833 38.6621Z" fill="#D1BB15"/>
  <path d="M42.8446 46.4097L43.7785 49.2842L46.801 49.2842L44.3558 51.0607L45.2898 53.9352L42.8446 52.1586L40.3994 53.9352L41.3334 51.0607L38.8882 49.2842L41.9106 49.2842L42.8446 46.4097Z" fill="#D1BB15"/>
  <path d="M32.1956 49.2378L33.1296 52.1123L36.152 52.1123L33.7069 53.8888L34.6408 56.7633L32.1956 54.9868L29.7505 56.7633L30.6844 53.8888L28.2392 52.1123L31.2617 52.1123L32.1956 49.2378Z" fill="#D1BB15"/>
  <path d="M21.6512 46.3735L22.5852 49.248L25.6076 49.248L23.1624 51.0246L24.0964 53.899L21.6512 52.1225L19.206 53.899L20.14 51.0246L17.6948 49.248L20.7172 49.248L21.6512 46.3735Z" fill="#D1BB15"/>
  <path d="M13.9539 38.6255L14.8879 41.5L17.9103 41.5L15.4652 43.2765L16.3991 46.151L13.9539 44.3745L11.5088 46.151L12.4427 43.2765L9.99755 41.5L13.02 41.5L13.9539 38.6255Z" fill="#D1BB15"/>
  <path d="M11.16 27.9512L12.094 30.8257L15.1164 30.8257L12.6712 32.6022L13.6052 35.4767L11.16 33.7002L8.71481 35.4767L9.64879 32.6022L7.2036 30.8257L10.226 30.8257L11.16 27.9512Z" fill="#D1BB15"/>
  <path d="M14.0291 17.4814L14.9631 20.3559L17.9855 20.3559L15.5403 22.1325L16.4743 25.007L14.0291 23.2304L11.584 25.007L12.5179 22.1325L10.0727 20.3559L13.0952 20.3559L14.0291 17.4814Z" fill="#D1BB15"/>
  <path d="M21.7855 9.78564L22.7195 12.6601L25.7419 12.6601L23.2967 14.4367L24.2307 17.3112L21.7855 15.5346L19.3403 17.3112L20.2743 14.4367L17.8291 12.6601L20.8515 12.6601L21.7855 9.78564Z" fill="#D1BB15"/>
  <path d="M32.5287 7L33.4626 9.87449L36.485 9.87449L34.0399 11.651L34.9738 14.5255L32.5287 12.749L30.0835 14.5255L31.0174 11.651L28.5723 9.87449L31.5947 9.87449L32.5287 7Z" fill="#D1BB15"/>
  <path d="M42.9618 9.89502L43.8957 12.7695L46.9182 12.7695L44.473 14.546L45.4069 17.4205L42.9618 15.644L40.5166 17.4205L41.4505 14.546L39.0054 12.7695L42.0278 12.7695L42.9618 9.89502Z" fill="#D1BB15"/>
  <path d="M50.6576 17.7056L51.5915 20.5801L54.614 20.5801L52.1688 22.3566L53.1027 25.2311L50.6576 23.4545L48.2124 25.2311L49.1464 22.3566L46.7012 20.5801L49.7236 20.5801L50.6576 17.7056Z" fill="#D1BB15"/>
</svg>
