<svg width="64" height="64" viewBox="0 0 64 64" fill="none" xmlns="http://www.w3.org/2000/svg">
  <rect width="64" height="64" fill="#A9100F"/>
  <path fill-rule="evenodd" clip-rule="evenodd" d="M26.5667 40.6161C28.7902 42.918 34.1828 45.9979 40.7294 42.4862L44.357 46.1533C44.63 46.4293 45.0749 46.4317 45.3509 46.1587L46.798 44.7272C47.0739 44.4542 47.0763 44.0093 46.8034 43.7333L43.5422 40.4366C47.6991 36.295 46.7536 30.2925 45.5507 27.5861C44.1452 24.8921 40.0735 19.6345 35.009 17.3957C33.1866 16.5901 33.6034 17.05 35.009 18.4527C35.0948 18.5384 35.2169 18.6552 35.369 18.8007L35.3692 18.8008C37.7074 21.0378 47.1332 30.0555 40.9826 37.0294C40.8536 37.1757 40.7216 37.3156 40.5871 37.4493L29.1632 25.9009L32.889 22.2595L25.5437 21.942L19.1965 27.7552L23.1851 31.7438L26.7022 28.3062L37.5986 39.3213C34.4197 40.4174 30.6614 39.449 27.6297 37.4278L27.6275 37.4321C27.623 37.4276 27.6184 37.4232 27.6138 37.4187C27.0946 36.9205 26.2935 36.8646 25.7101 37.2858L17.7283 43.0495C16.8789 43.6629 16.7517 44.8787 17.4558 45.6546L18.1538 46.4238C18.8284 47.1672 19.9875 47.1953 20.6973 46.4855L26.5667 40.6161Z" fill="#D3C726"/>
</svg>
