<svg width="64" height="64" viewBox="0 0 64 64" fill="none" xmlns="http://www.w3.org/2000/svg">
  <rect width="64" height="64" fill="#B82E1A"/>
  <path d="M22.1062 19.9165L24.3751 26.8997L31.7177 26.8997L25.7775 31.2155L28.0464 38.1987L22.1062 33.8829L16.1659 38.1987L18.4349 31.2155L12.4946 26.8997L19.8372 26.8997L22.1062 19.9165Z" fill="#D3B70F"/>
  <path d="M40.6998 13.413L40.6541 16.5945L43.6657 17.6211L40.6258 18.5607L40.5801 21.7422L38.7471 19.1414L35.7072 20.0811L37.6142 17.5341L35.7812 14.9334L38.7928 15.96L40.6998 13.413Z" fill="#D3B70F"/>
  <path d="M40.6998 41.5414L40.6541 44.7229L43.6657 45.7495L40.6258 46.6891L40.5801 49.8706L38.7471 47.2698L35.7072 48.2095L37.6142 45.6625L35.7812 43.0618L38.7928 44.0884L40.6998 41.5414Z" fill="#D3B70F"/>
  <path d="M45.7205 21.518L47.7423 23.9748L50.7036 22.8111L48.9919 25.4931L51.0137 27.95L47.9339 27.1508L46.2222 29.8328L46.0305 26.6568L42.9508 25.8576L45.9121 24.694L45.7205 21.518Z" fill="#D3B70F"/>
  <path d="M47.3715 33.3911L48.3548 36.4172L51.5365 36.4172L48.9624 38.2874L49.9456 41.3134L47.3715 39.4432L44.7974 41.3134L45.7806 38.2874L43.2065 36.4172L46.3883 36.4172L47.3715 33.3911Z" fill="#D3B70F"/>
</svg>
