<svg width="64" height="64" viewBox="0 0 64 64" fill="none" xmlns="http://www.w3.org/2000/svg">
  <g clip-path="url(#clip0_623_73)">
    <rect width="64" height="64" fill="#A70A0C"/>
    <mask id="path-1-inside-1_623_73" fill="white">
      <path fill-rule="evenodd" clip-rule="evenodd" d="M22.5879 -6.99902H40.4119V8.05171C47.1919 10.5262 52.5975 15.8574 55.1718 22.5886H69.9998V40.4127H55.1713C52.5968 47.1434 47.1916 52.4741 40.4119 54.9485V70.0008H22.5879V54.6757C16.1431 52.096 11.025 46.9058 8.54145 40.4127H-7V22.5886H8.54101C11.0244 16.095 16.1427 10.9044 22.5879 8.32442V-6.99902Z"/>
    </mask>
    <path fill-rule="evenodd" clip-rule="evenodd" d="M22.5879 -6.99902H40.4119V8.05171C47.1919 10.5262 52.5975 15.8574 55.1718 22.5886H69.9998V40.4127H55.1713C52.5968 47.1434 47.1916 52.4741 40.4119 54.9485V70.0008H22.5879V54.6757C16.1431 52.096 11.025 46.9058 8.54145 40.4127H-7V22.5886H8.54101C11.0244 16.095 16.1427 10.9044 22.5879 8.32442V-6.99902Z" fill="black"/>
    <path d="M40.4119 -6.99902H42.3815V-8.96858H40.4119V-6.99902ZM22.5879 -6.99902V-8.96858H20.6184V-6.99902H22.5879ZM40.4119 8.05171H38.4424V9.42952L39.7367 9.9019L40.4119 8.05171ZM55.1718 22.5886L53.3322 23.2922L53.8163 24.5582H55.1718V22.5886ZM69.9998 22.5886H71.9694V20.6191H69.9998V22.5886ZM69.9998 40.4127V42.3822H71.9694V40.4127H69.9998ZM55.1713 40.4127V38.4431H53.816L53.3318 39.709L55.1713 40.4127ZM40.4119 54.9485L39.7367 53.0983L38.4424 53.5706V54.9485H40.4119ZM40.4119 70.0008V71.9704H42.3815V70.0008H40.4119ZM22.5879 70.0008H20.6184V71.9704H22.5879V70.0008ZM22.5879 54.6757H24.5575V53.3426L23.3198 52.8472L22.5879 54.6757ZM8.54145 40.4127L10.381 39.709L9.89681 38.4431H8.54145V40.4127ZM-7 40.4127H-8.96956V42.3822H-7V40.4127ZM-7 22.5886V20.6191H-8.96956V22.5886H-7ZM8.54101 22.5886V24.5582H9.89645L10.3806 23.2922L8.54101 22.5886ZM22.5879 8.32442L23.3198 10.1529L24.5575 9.65752V8.32442H22.5879ZM40.4119 -8.96858H22.5879V-5.02947H40.4119V-8.96858ZM42.3815 8.05171V-6.99902H38.4424V8.05171H42.3815ZM57.0114 21.8851C54.2336 14.6217 48.4037 8.87178 41.0872 6.20152L39.7367 9.9019C45.9802 12.1805 50.9613 17.093 53.3322 23.2922L57.0114 21.8851ZM55.1718 24.5582H69.9998V20.6191H55.1718V24.5582ZM68.0303 22.5886V40.4127H71.9694V22.5886H68.0303ZM69.9998 38.4431H55.1713V42.3822H69.9998V38.4431ZM41.0872 56.7986C48.4033 54.1285 54.2329 48.3791 57.0109 41.1163L53.3318 39.709C50.9608 45.9077 45.9798 50.8198 39.7367 53.0983L41.0872 56.7986ZM42.3815 70.0008V54.9485H38.4424V70.0008H42.3815ZM22.5879 71.9704H40.4119V68.0313H22.5879V71.9704ZM20.6184 54.6757V70.0008H24.5575V54.6757H20.6184ZM6.70187 41.1163C9.38193 48.123 14.9018 53.7206 21.856 56.5042L23.3198 52.8472C17.3843 50.4713 12.6682 45.6885 10.381 39.709L6.70187 41.1163ZM8.54145 38.4431H-7V42.3822H8.54145V38.4431ZM-5.03044 40.4127V22.5886H-8.96956V40.4127H-5.03044ZM-7 24.5582H8.54101V20.6191H-7V24.5582ZM21.856 6.49591C14.9014 9.27972 9.38128 14.8778 6.7014 21.8851L10.3806 23.2922C12.6676 17.3122 17.3839 12.529 23.3198 10.1529L21.856 6.49591ZM20.6184 -6.99902V8.32442H24.5575V-6.99902H20.6184Z" fill="#CCCCCC" mask="url(#path-1-inside-1_623_73)"/>
    <mask id="path-3-inside-2_623_73" fill="white">
      <path fill-rule="evenodd" clip-rule="evenodd" d="M36.8477 13.1357C35.1502 12.6586 33.3562 12.403 31.5009 12.403C29.6453 12.403 27.8511 12.6587 26.1533 13.1359V-6H36.8477V13.1357ZM26.1533 49.17C27.8511 49.6472 29.6453 49.903 31.5009 49.903C33.3562 49.903 35.1502 49.6473 36.8477 49.1702V69H26.1533V49.17Z"/>
    </mask>
    <path fill-rule="evenodd" clip-rule="evenodd" d="M36.8477 13.1357C35.1502 12.6586 33.3562 12.403 31.5009 12.403C29.6453 12.403 27.8511 12.6587 26.1533 13.1359V-6H36.8477V13.1357ZM26.1533 49.17C27.8511 49.6472 29.6453 49.903 31.5009 49.903C33.3562 49.903 35.1502 49.6473 36.8477 49.1702V69H26.1533V49.17Z" fill="black"/>
    <path d="M36.8477 13.1357L36.4619 14.5085L38.2737 15.0176V13.1357H36.8477ZM26.1533 13.1359H24.7274V15.0179L26.5392 14.5086L26.1533 13.1359ZM26.1533 -6V-7.42592H24.7274V-6H26.1533ZM36.8477 -6H38.2737V-7.42592H36.8477V-6ZM26.1533 49.17L26.5392 47.7973L24.7274 47.288V49.17H26.1533ZM36.8477 49.1702H38.2737V47.2883L36.4619 47.7975L36.8477 49.1702ZM36.8477 69V70.4259H38.2737V69H36.8477ZM26.1533 69H24.7274V70.4259H26.1533V69ZM31.5009 13.8289C33.2247 13.8289 34.8889 14.0664 36.4619 14.5085L37.2336 11.763C35.4114 11.2509 33.4876 10.977 31.5009 10.977V13.8289ZM26.5392 14.5086C28.1124 14.0664 29.7768 13.8289 31.5009 13.8289V10.977C29.5138 10.977 27.5898 11.2509 25.7675 11.7632L26.5392 14.5086ZM24.7274 -6V13.1359H27.5792V-6H24.7274ZM36.8477 -7.42592H26.1533V-4.57408H36.8477V-7.42592ZM38.2737 13.1357V-6H35.4218V13.1357H38.2737ZM31.5009 48.477C29.7768 48.477 28.1124 48.2395 26.5392 47.7973L25.7675 50.5427C27.5898 51.055 29.5138 51.3289 31.5009 51.3289V48.477ZM36.4619 47.7975C34.8889 48.2396 33.2247 48.477 31.5009 48.477V51.3289C33.4876 51.3289 35.4114 51.0551 37.2336 50.5429L36.4619 47.7975ZM38.2737 69V49.1702H35.4218V69H38.2737ZM26.1533 70.4259H36.8477V67.5741H26.1533V70.4259ZM24.7274 49.17V69H27.5792V49.17H24.7274Z" fill="#CCCCCC" mask="url(#path-3-inside-2_623_73)"/>
    <circle cx="31.8561" cy="31.5006" r="19.9629" fill="black" stroke="#CCCCCC" stroke-width="1.42592"/>
    <circle cx="31.8563" cy="31.5003" r="17.824" fill="#D9D9D9"/>
    <path fill-rule="evenodd" clip-rule="evenodd" d="M39.3417 17.9526C37.7341 21.3465 36.932 23.2523 36.3301 27.0254C40.103 26.4234 42.0088 25.6213 45.4026 24.0137V38.9859C42.0089 37.3784 40.1031 36.5763 36.3304 35.9743C36.9323 39.7461 37.7344 41.6519 39.3417 45.0452H24.3695C25.9769 41.652 26.7789 39.7462 27.3809 35.9745C23.6091 36.5765 21.7033 37.3786 18.3101 38.9859V24.0137C21.7034 25.6211 23.6092 26.4232 27.3812 27.0251C26.7792 23.2523 25.9771 21.3464 24.3695 17.9526H39.3417Z" fill="black"/>
    <path fill-rule="evenodd" clip-rule="evenodd" d="M37.5604 19.3784C36.2558 22.6128 35.6474 24.3367 35.178 28.1779C39.0195 27.7084 40.7435 27.1001 43.978 25.7954V37.2028C40.7435 35.8981 39.0195 35.2898 35.1781 34.8203C35.6475 38.661 36.2559 40.3849 37.5604 43.6191H26.153C27.4575 40.385 28.0659 38.6611 28.5353 34.8205C24.6952 35.29 22.9713 35.8983 19.7373 37.2028V25.7954C22.9713 27.0999 24.6952 27.7082 28.5354 28.1777C28.066 24.3367 27.4576 22.6127 26.153 19.3784H37.5604Z" fill="#CCCCCC"/>
    <path fill-rule="evenodd" clip-rule="evenodd" d="M35.4209 20.8045C34.5345 23.9067 34.1624 25.4341 33.857 29.4982C37.921 29.1928 39.4485 28.8206 42.5507 27.9343V35.0639C39.4485 34.1775 37.9211 33.8054 33.857 33.5C34.1624 37.5637 34.5345 39.0912 35.4209 42.1933H28.2913C29.1776 39.0912 29.5497 37.5637 29.8551 33.5C25.7914 33.8054 24.264 34.1776 21.1619 35.0639V27.9343C24.264 28.8206 25.7914 29.1927 29.8551 29.4981C29.5497 25.4341 29.1776 23.9067 28.2913 20.8045H35.4209Z" fill="black"/>
    <mask id="path-10-inside-3_623_73" fill="white">
      <path fill-rule="evenodd" clip-rule="evenodd" d="M50.3538 36.8478C50.8437 35.1503 51.1061 33.3563 51.1061 31.501C51.1061 29.6454 50.8436 27.8512 50.3536 26.1534H69.9998V36.8478H50.3538ZM13.3587 26.1534C12.8688 27.8512 12.6062 29.6454 12.6062 31.501C12.6062 33.3563 12.8687 35.1503 13.3585 36.8478H-7V26.1534H13.3587Z"/>
    </mask>
    <path fill-rule="evenodd" clip-rule="evenodd" d="M50.3538 36.8478C50.8437 35.1503 51.1061 33.3563 51.1061 31.501C51.1061 29.6454 50.8436 27.8512 50.3536 26.1534H69.9998V36.8478H50.3538ZM13.3587 26.1534C12.8688 27.8512 12.6062 29.6454 12.6062 31.501C12.6062 33.3563 12.8687 35.1503 13.3585 36.8478H-7V26.1534H13.3587Z" fill="black"/>
    <path d="M50.3538 36.8477L48.9838 36.4524L48.4583 38.2737H50.3538V36.8477ZM50.3536 26.1533V24.7274H48.458L48.9836 26.5487L50.3536 26.1533ZM69.9998 26.1533H71.4258V24.7274H69.9998V26.1533ZM69.9998 36.8477V38.2737H71.4258V36.8477H69.9998ZM13.3587 26.1533L14.7287 26.5487L15.2543 24.7274H13.3587V26.1533ZM13.3585 36.8477V38.2737H15.254L14.7285 36.4524L13.3585 36.8477ZM-7 36.8477H-8.42592V38.2737H-7V36.8477ZM-7 26.1533V24.7274H-8.42592V26.1533H-7ZM49.6802 31.5009C49.6802 33.2211 49.4369 34.882 48.9838 36.4524L51.7239 37.2431C52.2504 35.4183 52.5321 33.4913 52.5321 31.5009H49.6802ZM48.9836 26.5487C49.4369 28.1193 49.6802 29.7804 49.6802 31.5009H52.5321C52.5321 29.5102 52.2503 27.583 51.7237 25.758L48.9836 26.5487ZM69.9998 24.7274H50.3536V27.5792H69.9998V24.7274ZM71.4258 36.8477V26.1533H68.5739V36.8477H71.4258ZM50.3538 38.2737H69.9998V35.4218H50.3538V38.2737ZM14.0321 31.5009C14.0321 29.7804 14.2755 28.1193 14.7287 26.5487L11.9887 25.758C11.462 27.583 11.1803 29.5102 11.1803 31.5009H14.0321ZM14.7285 36.4524C14.2754 34.882 14.0321 33.2211 14.0321 31.5009H11.1803C11.1803 33.4913 11.4619 35.4183 11.9885 37.2431L14.7285 36.4524ZM-7 38.2737H13.3585V35.4218H-7V38.2737ZM-8.42592 26.1533V36.8477H-5.57408V26.1533H-8.42592ZM13.3587 24.7274H-7V27.5792H13.3587V24.7274Z" fill="#CCCCCC" mask="url(#path-10-inside-3_623_73)"/>
  </g>
  <defs>
    <clipPath id="clip0_623_73">
      <rect width="64" height="64" fill="white"/>
    </clipPath>
  </defs>
</svg>
